/* XPM */
static char *arch[] = {
/* columns rows colors chars-per-pixel */
"20 20 7 1 ",
"  c None",
". c #ECEFF4",
"X c #ECEFF4",
"o c #ECEFF4",
"O c #ECEFF4",
"+ c #ECEFF4",
"@ c #ECEFF4",
/* pixels */
"         @@         ",
"         @@         ",
"        @  @        ",
"        @  @        ",
"       @    @       ",
"       @@   @       ",
"      @@@@   @      ",
"      @      @      ",
"     @        @     ",
"     @        @     ",
"    O    @@    @    ",
"    @   @  @   @    ",
"   @    @  @    @   ",
"   @   @    @ .@@   ",
"  @    @    @   @+  ",
"  @   o@    @@   @  ",
" @ @@@        @@@ @ ",
"X@@              @@@",
"@                  @",
"                    "
};
