/* XPM */
static char *artix[] = {
/* columns rows colors chars-per-pixel */
"20 20 45 1 ",
"  c None",
". c #8D8D8D",
"X c #8E8E8E",
"o c gray56",
"O c gray57",
"+ c #929292",
"@ c #939393",
"# c gray58",
"$ c #959595",
"% c #979797",
"& c #989898",
"* c gray60",
"= c #9A9A9A",
"- c #9B9B9B",
"; c #9D9D9D",
": c gray62",
"> c #9F9F9F",
", c #A0A0A0",
"< c gray63",
"1 c gray64",
"2 c #A4A4A4",
"3 c #A5A5A5",
"4 c gray65",
"5 c #A7A7A7",
"6 c gray66",
"7 c #A9A9A9",
"8 c #AAAAAA",
"9 c gray67",
"0 c #ACACAC",
"q c gray68",
"w c #AEAEAE",
"e c #AFAFAF",
"r c gray69",
"t c #B1B1B1",
"y c #B2B2B2",
"u c gray70",
"i c #B4B4B4",
"p c gray71",
"a c #B6B6B6",
"s c #B7B7B7",
"d c gray72",
"f c #B9B9B9",
"g c #BBBBBB",
"h c gray74",
"j c gray",
/* pixels */
"         qq         ",
"         qt         ",
"        8ttq        ",
"        qppt        ",
"       8qddtq       ",
"       33phpt       ",
"       ;=,tdtq      ",
"        $@=8tt      ",
"          X$3qq     ",
"     qq     @,8     ",
"    qqttq8    ;     ",
"    qtppptq8        ",
"    qtpdhhp833      ",
"   qqtpdhht,;,,     ",
"   qtpddp3=$=       ",
"  8qtpt8=@$    qtt  ",
"  qqq8=X      3qdp  ",
" 888=X       ;=;qtq ",
" 8;X            $;8 ",
"                    "
};
